<?xml version="1.0" encoding="utf-8"?>
<!-- Generator: Adobe Illustrator 21.0.0, SVG Export Plug-In . SVG Version: 6.00 Build 0)  -->
<!DOCTYPE svg PUBLIC "-//W3C//DTD SVG 1.1//EN" "http://www.w3.org/Graphics/SVG/1.1/DTD/svg11.dtd">
<svg version="1.1" id="Layer_1" xmlns="http://www.w3.org/2000/svg" xmlns:xlink="http://www.w3.org/1999/xlink" x="0px" y="0px"
	 viewBox="0 0 342 547.3" style="enable-background:new 0 0 342 547.3;" xml:space="preserve">
<style type="text/css">
	.st0{fill:#FFFFFF;}
</style>
<g>
	<path class="st0" d="M311.9,295.7H289V123C289,57.9,236.1,5,171,5S53,57.9,53,123v89h25.5l28.5-34.6V123c0-35.3,28.7-64,64-64
		s64,28.7,64,64v172.7H107H53H30.1c-13.9,0-25.1,11.2-25.1,25v196.5c0,13.8,11.2,25.1,25.1,25.1H312c13.8,0,25.1-11.2,25.1-25.1
		V320.7C337,306.9,325.8,295.7,311.9,295.7z M191.7,430.9v41.4c0,11.4-9.3,20.7-20.7,20.7s-20.7-9.3-20.7-20.7v-41.4
		c-14.7-7.5-24.8-22.8-24.8-40.4c0-25.1,20.3-45.4,45.4-45.4s45.4,20.3,45.4,45.4C216.4,408.1,206.4,423.4,191.7,430.9z"/>
</g>
</svg>
