<?xml version="1.0" encoding="utf-8"?>
<!-- Generator: Adobe Illustrator 21.0.0, SVG Export Plug-In . SVG Version: 6.00 Build 0)  -->
<!DOCTYPE svg PUBLIC "-//W3C//DTD SVG 1.1//EN" "http://www.w3.org/Graphics/SVG/1.1/DTD/svg11.dtd">
<svg version="1.1" id="Layer_1" xmlns="http://www.w3.org/2000/svg" xmlns:xlink="http://www.w3.org/1999/xlink" x="0px" y="0px"
	 viewBox="0 0 342 547.3" style="enable-background:new 0 0 342 547.3;" xml:space="preserve">
<style type="text/css">
	.st0{fill:none;}
</style>
<g>
	<path class="st0" d="M171,345c-25.1,0-45.4,20.3-45.4,45.4c0,17.6,10.1,32.9,24.8,40.4v41.4c0,11.4,9.3,20.7,20.7,20.7
		s20.7-9.3,20.7-20.7v-41.4c14.7-7.5,24.8-22.8,24.8-40.4C216.4,365.4,196.1,345,171,345z"/>
	<path class="st0" d="M171,142.7c-35.3,0-64,28.7-64,64v89h128v-89C235,171.4,206.3,142.7,171,142.7z"/>
	<path d="M311.9,295.7H289v-89c0-65.1-52.9-118-118-118s-118,52.9-118,118v89H30.1C16.2,295.7,5,306.9,5,320.7v196.5
		c0,13.8,11.2,25.1,25.1,25.1h281.9c13.8,0,25.1-11.2,25.1-25.1V320.7C337,306.9,325.8,295.7,311.9,295.7z M191.7,430.9v41.4
		c0,11.4-9.3,20.7-20.7,20.7s-20.7-9.3-20.7-20.7v-41.4c-14.7-7.5-24.8-22.8-24.8-40.4c0-25.1,20.3-45.4,45.4-45.4
		c25.1,0,45.4,20.3,45.4,45.4C216.4,408.1,206.4,423.4,191.7,430.9z M235,295.7H107v-89c0-35.3,28.7-64,64-64s64,28.7,64,64V295.7z"
		/>
</g>
</svg>
