<?xml version="1.0" encoding="utf-8"?>
<!-- Generator: Adobe Illustrator 21.0.0, SVG Export Plug-In . SVG Version: 6.00 Build 0)  -->
<!DOCTYPE svg PUBLIC "-//W3C//DTD SVG 1.1//EN" "http://www.w3.org/Graphics/SVG/1.1/DTD/svg11.dtd">
<svg version="1.1" id="Layer_1" xmlns="http://www.w3.org/2000/svg" xmlns:xlink="http://www.w3.org/1999/xlink" x="0px" y="0px"
	 viewBox="0 0 325 425" style="enable-background:new 0 0 325 425;" xml:space="preserve">
<g>
	<path d="M17.9,365.5c0,31.2,22.4,56.5,50.1,56.5h189c27.7,0,50.1-25.3,50.1-56.5V127H17.9V365.5z M222,184.2
		c0-8.4,6.8-15.2,15.2-15.2s15.2,6.8,15.2,15.2v180.6c0,8.4-6.8,15.2-15.2,15.2s-15.2-6.8-15.2-15.2V184.2z M147.3,184.2
		c0-8.4,6.8-15.2,15.2-15.2s15.2,6.8,15.2,15.2v180.6c0,8.4-6.8,15.2-15.2,15.2s-15.2-6.8-15.2-15.2V184.2z M72.5,184.2
		c0-8.4,6.8-15.2,15.2-15.2s15.2,6.8,15.2,15.2v180.6c0,8.4-6.8,15.2-15.2,15.2s-15.2-6.8-15.2-15.2V184.2z"/>
	<path d="M273.1,57.2h-67.4V48c0-24.8-19.4-45-43.2-45c-23.8,0-43.2,20.2-43.2,45v9.2H51.9C24.9,57.2,3,81.4,3,111.3v0h319v0
		C322,81.4,300.1,57.2,273.1,57.2z M180.7,57.2h-36.4V48c0-10.5,8.1-18.9,18.2-18.9c10,0,18.2,8.5,18.2,18.9V57.2z"/>
</g>
</svg>
